<?xml version="1.0" encoding="UTF-8"?>
<svg width="15px" height="14px" viewBox="0 0 15 14" version="1.1" xmlns="http://www.w3.org/2000/svg" xmlns:xlink="http://www.w3.org/1999/xlink">
    <title>cart</title>
    <g id="Page-1" stroke="none" stroke-width="1" fill="none" fill-rule="evenodd">
        <g id="cart" transform="translate(0.300000, 0.200000)" fill="#000000" fill-rule="nonzero">
            <path d="M12.7,4 L10.3,4 L10.3,2 C10.3,0.9 9,0 7.3,0 C5.6,0 4.3,0.8 4.3,2 L4.3,4 L1.6,4 C0.6,4 0,4.5 0,5.2 L0.5,13 L13.9,13 L14.5,5.3 C14.5,4.5 13.7,4 12.7,4 Z M5.8,2 C5.9,1.9 6.4,1.5 7.3,1.5 C8.2,1.5 8.7,1.8 8.8,2 L8.8,4 L5.8,4 L5.8,2 Z M12.5,11.5 L1.9,11.5 L1.5,5.6 C1.5,5.6 1.6,5.6 1.6,5.6 L12.7,5.6 C12.8,5.6 12.9,5.6 12.9,5.6 L12.5,11.5 Z" id="Shape"></path>
        </g>
    </g>
</svg>