<svg xmlns="http://www.w3.org/2000/svg" x="0px" y="0px" viewBox="0 0 158.1 148">
<style type="text/css">
	.st0{fill:#143F2B;}
</style>
<path class="st0" d="M54.5,57.1c0,0.1,0.1,0.2,0.2,0.1v0c0,0,0,0,0,0c0,0,0,0,0,0l0,0v0l0.4,0l0,0c0,0,0,0,0,0
	c0,0.1,0.1,0.2,0.1,0.3v0c0,0,0,0,0,0v0c0,0,0,0,0,0c0,0,0,0,0.1,0.1c0.1,0,0.2,0.1,0.3,0.1c0.1,0.1,0.1,0.2-0.3,0.4
	c-0.2,0.1-0.1,0.3,0,0.4c0,0.1,0.1,0.1,0.1,0.1c0.1,0,0.1,0.1,0.2,0.1c0.3,0,0.4-0.2,0.6-0.3c0,0,0.1,0,0.1,0.1c0,0,0,0.1,0,0.1
	c-0.1,0.2-0.1,0.3,0,0.4c0,0,0.1,0.1,0.1,0.1c0.2,0.1,0.5,0.1,0.6-0.1c0.3-0.4,0.5,0,0.8,0c0,0,0,0,0,0c0.1,0.1,0.1,0.3,0,0.5
	c-0.1,0.1-0.1,0.3,0,0.4c0,0,0,0,0,0c0,0,0,0.1,0.1,0.1c0,0,0.1,0.1,0.1,0.1c0,0,0,0,0,0c0,0,0,0,0,0c0,0,0,0,0,0
	c0.3,0.1,0.5-0.1,0.6-0.4c0-0.1,0-0.2,0-0.3c0,0,0,0,0,0l0.2,0c0,0,0,0,0,0l0,0c0,0,0,0,0,0c0,0,0,0,0,0c0.6,0.2,0.5-0.3,0.7-0.7
	c0.1,0.2,0.2,0.3,0.3,0.3c0.1,0,0.2-0.1,0.4-0.3c0,0,0,0,0,0c0.5-0.2,1.1-0.4,1.3-1.1c0,0,0,0,0,0c0,0,0.1,0,0.1,0
	c0.1,0,0.1,0,0.2,0.1c0.1,0.1,0.1,0.4,0.4,0.3c0,0,0,0,0,0c0,0,0,0,0,0c0,0,0,0,0,0c0,0,0,0,0.1-0.1c0,0,0-0.1,0.1-0.1c0,0,0,0,0,0
	c0-0.1,0-0.2,0-0.3c0-0.1-0.1-0.2-0.1-0.2c0-0.2,0.2-0.3,0.3-0.4c0,0,0,0,0,0c0,0,0,0,0,0c0,0,0.1,0,0.1-0.1
	c0.2-0.2-0.2-0.5,0.1-0.7c0,0,0,0,0,0c0,0,0,0,0,0c0,0,0,0,0,0c0,0,0,0,0,0c0-0.2,0-0.3-0.1-0.3c-0.1,0-0.1,0-0.3,0.1
	c-0.1,0.1-0.1,0.2-0.3,0.2C62.2,56.1,62.1,56,62,56c0,0,0,0,0,0c0,0,0,0,0,0c-0.1-0.2-0.1-0.4,0-0.6c0,0,0.1,0,0.1,0c0,0,0,0,0.1,0
	c0.2,0,0.4-0.1,0.5-0.3c0,0,0,0,0,0l0,0c0,0,0,0,0,0l0.1,0l-0.1,0c0,0,0,0,0,0l0,0c0,0,0,0,0,0l-0.2-0.2c0,0,0,0,0,0l0,0
	c0,0,0,0,0,0c0,0,0.1-0.1,0.1-0.1c0.1-0.1,0.3-0.2,0.2-0.4c0-0.1,0-0.1-0.1-0.2c0,0-0.1,0-0.1-0.1c-0.2-0.1-0.3,0.3-0.5,0.3
	c0-0.2-0.4-0.1-0.3-0.2c0.6-0.5-0.2-0.4-0.3-0.6c0.1-0.2,0.3-0.2,0.5-0.3c0.1,0,0.2-0.2,0.2-0.3c0-0.1-0.1-0.1-0.1-0.1
	c0,0-0.1,0-0.2,0c0,0,0,0,0,0c-0.1,0-0.2,0-0.3-0.1c0,0,0,0,0,0c0,0-0.1-0.1-0.1-0.1c0,0-0.1-0.1-0.1-0.1c-0.2-0.1-0.4-0.2-0.6-0.2
	c-0.2,0-0.4,0-0.6,0.2c0,0-0.1,0-0.1-0.1c-0.1-0.1,0-0.1,0.1-0.3c0.1-0.2,0.1-0.5-0.1-0.6c-0.1-0.1-0.3-0.2-0.4-0.1c0,0,0,0,0,0
	c0,0,0,0,0,0c-0.3,0.1-0.1,0.3-0.2,0.5c0,0-0.1,0.1-0.1,0.1c0,0,0,0,0,0c0-0.3-0.3-0.4-0.5-0.6h0c-0.1-0.2,0.1-0.3,0-0.5
	c0,0,0,0,0,0c0,0,0,0,0-0.1c-0.1-0.2-0.2-0.4-0.4-0.4c-0.2,0-0.2,0.2-0.2,0.3c0,0.1,0,0.1,0.1,0.2c0,0,0,0.1,0,0.1
	c0,0.1-0.2,0.2-0.2,0.3l0,0c0,0,0,0,0,0c0,0.1,0,0.2,0,0.3c0,0.1,0,0.2-0.1,0.3C58,52,57.7,52,57.5,51.7c-0.1-0.2-0.3-0.1-0.3,0.1
	c0,0,0,0,0,0c0,0,0,0,0,0c0,0.2-0.1,0.4-0.1,0.5c0,0-0.1,0.1-0.1,0.1c-0.3,0.1-0.6-0.2-0.9-0.2l0,0c0,0,0,0,0,0
	c-0.1,0-0.2,0-0.2-0.1c-0.1-0.1-0.2-0.3-0.4-0.2c0,0,0,0,0,0c0,0,0,0,0,0c-0.1,0-0.1,0.1-0.1,0.2c0,0.2,0.1,0.3,0.3,0.3
	c0.1,0,0.2,0,0.3,0l0,0c0,0,0,0,0,0c0,0.2-0.1,0.3-0.3,0.4c0,0,0,0-0.1,0c0,0-0.1,0.1-0.1,0.1c-0.1,0-0.2,0-0.2,0c0,0,0,0,0,0
	c0,0-0.1,0-0.1,0c-0.1,0-0.2,0.1-0.2,0.2c0,0,0,0,0,0c0,0.3,0.2,0.2,0.4,0.2h0.4c-0.3,0.2-0.5,0.4-0.4,0.7c-0.1,0.1-0.3,0.1-0.3,0.2
	c-0.2,0.4-0.1,0.8-0.4,1.2c0,0,0,0.1,0,0.1c0,0.1,0.1,0.2,0.3,0.1c0.2-0.1,0.3-0.1,0.3,0c0,0.1,0,0.2,0,0.3c-0.1,0-0.3,0.2-0.2,0.2
	c0.4,0.5-0.2,0.3-0.3,0.4C54.6,56.9,54.6,56.9,54.5,57.1C54.6,57,54.5,57,54.5,57.1C54.5,57.1,54.5,57.1,54.5,57.1z"/>
<path class="st0" d="M50.1,86.2c-0.1,0-0.2-0.1-0.2-0.2l0,0c0.3-0.1,0.6-0.4,0.4-0.6c-0.1-0.2-0.3-0.7-0.6-0.6
	c-0.6,0.2-0.5-0.2-0.5-0.4c0.1-0.4-0.1-0.3-0.4-0.3l-0.1,0c0,0,0,0,0,0l0.1,0L48.8,84c0,0,0,0,0,0c-0.1-0.5-0.7-0.7-0.6-1.3
	c0,0-0.1,0-0.1,0c-0.1,0-0.3,0-0.2-0.2c0,0,0,0,0.1,0c0.2,0,0.3,0,0.5,0c0.2,0,0.3-0.1,0.3-0.4c-0.1-0.1-0.2,0-0.4-0.1
	c-0.1-0.1-0.2-0.3-0.3-0.3c0,0-0.1,0-0.1,0c-0.2,0.1-0.1,0.4,0,0.6c0,0,0,0.1,0,0.1c-0.1-0.2-0.4,0.1-0.6-0.1
	c-0.4-0.6-1.2-0.8-1.9-0.4c0,0,0,0,0,0c0,0,0-0.1,0-0.1c0.2-0.4,0.3-0.5-0.3-0.5c-0.4,0.1-0.8,0.1-1.1,0.3c-0.3,0.1-0.4,0.2-0.4,0.5
	c-0.3,0-0.6-0.3-0.9-0.2c0,0.1,0,0.1,0,0.2c0.2,0.5,0.6,1.1,0,1.7c0,0,0,0.2,0,0.2c0,0,0.1,0.1,0.1,0.1c0,0-0.1-0.1-0.1-0.1L42.5,84
	c0,0,0,0,0,0c-0.3,0-0.5,0-0.5,0.4s-0.1,0.7-0.6,0.7c-0.2,0-0.4,0.2-0.2,0.3c0.5,0.3,0.3,0.9,0.6,1.3c0.1,0,0.2,0.1,0.2,0.1
	c-0.1,0-0.2-0.1-0.3-0.1c0,0.1,0,0.4-0.2,0.1c-0.2-0.3-0.3-0.1-0.5,0.1c-0.1,0.2,0,0.4,0.2,0.5c0.3,0.2,0.5-0.1,0.7-0.1
	c0.3-0.2,0.6-0.5,0.8-0.8c-0.1,0-0.1,0-0.2,0c0.1,0,0.1,0,0.2,0c-0.2,0.3-0.5,0.6-0.8,0.8c0.1,0.3,0.6,0.3,0.4,0.7c0,0,0,0,0,0
	c0,0,0,0,0,0c-0.2-0.1-0.4-0.3-0.6,0c-0.3,0.3,0.1,0.3,0.2,0.4c0,0,0,0.1,0,0.2c0,0.5,0.5,0.2,0.7,0.5c0.1,0.1,0.1-0.3,0.2-0.4
	c0-0.1,0.1-0.1,0.1-0.2h0c0,0,0.1,0,0.1,0c0.2,0.2,0.3,0.5,0.6,0.4c0.1-0.1,0.3-0.1,0.3-0.3c0-0.1-0.2-0.1-0.3-0.2
	c-0.1,0-0.2,0-0.3,0H43c0,0,0,0,0,0h0.2l0-0.4c0-0.1,0-0.2,0-0.2c0.1,0.1,0.1,0.2,0.1,0.3l0,0.3c0.1,0,0.2,0,0.3,0
	c0.1,0,0.3,0.1,0.3,0.2c0,0.1-0.2,0.2-0.3,0.3c0,0.3,0.1,0.6,0.5,0.3c0.1-0.1,0.3,0,0.4,0.1c0,0,0,0,0,0l-0.1,0.3v0
	c0,0-0.1,0.1-0.1,0.1c-0.2,0-0.5,0.1-0.4,0.4s0.3,0.1,0.4,0.1c0.1,0,0.2,0,0.2,0.1c0.1,0.3,0.2,0.3,0.4,0.1c0.1-0.1,0.1-0.1,0.2,0
	c0.3,0.4,0.6,0.2,0.7-0.1c0.1-0.3,0.3-0.2,0.3-0.1c0.3,0.5,0.6,0.1,0.9,0c0.1-0.1,0.3-0.3-0.1-0.3c-0.1,0-0.2,0.2-0.3,0.1v0
	c0.2,0.1,0.2-0.1,0.3-0.1l0,0h0c-0.1-0.1,0-0.3,0.1-0.4h0l0,0h0c0-0.1,0-0.1,0-0.2l0.2-0.3c0,0,0.1,0,0.1-0.1l-0.2,0.3c0,0,0,0,0,0
	c0,0.1,0,0.1,0,0.2c0.1,0,0.3-0.1,0.4,0.1c0.1-0.3,0.2-0.3-0.1-0.3c0.3,0,0.2,0.1,0.1,0.4c0.2,0.4,0.3,0.1,0.5,0c0,0,0,0,0,0
	c0.2,0,0.3,0.1,0.4-0.2c0,0,0,0,0,0v-0.2c0,0,0,0,0,0l0.2-0.3c0,0,0,0,0,0c0.1-0.4,0-0.8,0.4-1c0.1,0.1,0.2,0.1,0.3,0.1c0,0,0,0,0,0
	c0,0,0,0,0,0c0.6-0.3,0.4-1,0.9-1.4C50.4,86.4,50.3,86.2,50.1,86.2z M42.4,87.3C42.4,87.3,42.4,87.3,42.4,87.3
	C42.4,87.3,42.4,87.4,42.4,87.3C42.4,87.4,42.4,87.3,42.4,87.3C42.4,87.3,42.4,87.3,42.4,87.3z M42.6,88.4L42.6,88.4
	c-0.2,0-0.3,0-0.3-0.1C42.4,88.4,42.5,88.4,42.6,88.4c0-0.1,0-0.2,0-0.3C42.6,88.2,42.6,88.3,42.6,88.4z M42.5,87.4
	c0,0,0.1-0.1,0.1-0.1C42.6,87.4,42.6,87.4,42.5,87.4z M42.8,88C42.8,88,42.8,88.1,42.8,88C42.9,88.1,42.9,88.1,42.8,88
	C42.8,88.1,42.8,88,42.8,88z M43.4,82.4C43.4,82.4,43.4,82.4,43.4,82.4C43.4,82.4,43.4,82.4,43.4,82.4
	C43.4,82.4,43.4,82.4,43.4,82.4z M43.7,82.1c0.2,0,0.4-0.2,0.7-0.2C44.2,81.9,44,82.1,43.7,82.1z M44.8,82
	C44.8,82,44.7,82.1,44.8,82C44.7,82.1,44.7,82.1,44.8,82C44.7,82.1,44.8,82,44.8,82c0-0.2,0.1-0.3,0.2-0.3
	C44.9,81.8,44.8,81.8,44.8,82z M48.2,89.1c0.1,0,0.1,0.1,0.2,0.1C48.3,89.2,48.3,89.2,48.2,89.1z M49.5,86.6
	C49.5,86.6,49.5,86.6,49.5,86.6c0.1,0,0.1,0,0.1-0.1C49.6,86.5,49.6,86.5,49.5,86.6z M49.7,86.1c-0.2-0.1,0-0.5-0.2-0.6
	C49.7,85.6,49.5,86,49.7,86.1L49.7,86.1z"/>
<path class="st0" d="M49.4,87.9c-0.1,0.3-0.1,0.5,0.2,0.5c0.1,0,0.2,0,0.3,0c0,0,0,0,0.1-0.1c0.1-0.3-0.2-0.3-0.4-0.4
	C49.6,87.8,49.5,87.8,49.4,87.9C49.4,87.9,49.4,87.9,49.4,87.9C49.4,87.9,49.4,87.9,49.4,87.9z"/>
<path class="st0" d="M91.3,53.1c0.1,0,0.1,0,0.2,0.1l-0.1,0.1c-0.2,0.5-0.1,0.7,0.3,0.7c0.1-0.1,0.1-0.4,0.4-0.4
	c0.3,0,0.1,0.2,0.2,0.4c0.2,0.3-0.1,0.3-0.3,0.4c-0.1,0.1-0.2,0.2-0.1,0.4c0.1,0.1,0.2,0.2,0.1,0.3c-0.3,0.7,0.2,0.9,0.6,1.2
	c0.1,0.1,0.2,0.1,0.1,0.3c-0.1,0.3-0.2,0.7,0.2,0.7c0.5,0.1,0,0.6,0.5,0.6c0.1,0,0.1,0,0.2,0l0,0.2c-0.1,0.1-0.1,0.3-0.4,0.3
	c-0.2,0-0.3,0.3-0.2,0.5c0,0.2,0.1,0.3,0.2,0.3c0.3,0.1,0.2-0.2,0.3-0.3c0.1-0.1,0.3-0.2,0.4-0.4l0.2,0.2c-0.3,0.6,0.2,0.4,0.5,0.5
	c0.2,0.2-0.1,0.6,0.3,0.6c0.3,0,0.2-0.3,0.3-0.5c0.3,0,0.7,0.3,0.9-0.2l0.2-0.2h0.2c0.3,0.5,0.6,0.9,1.1,0.4c0,0,0.1,0,0.1,0
	c0.2,0.1,0.3,0,0.5,0c0.3,0.1,0.7,0.4,0.7-0.3h0c0,0,0-0.1,0-0.1l0.2-0.4c0.1-0.3,0.5-0.1,0.6-0.3c0.2-0.2,0.5-0.5,0.5-0.8
	c0.4-0.1,0.2-0.4,0.3-0.7c0.2,0,0.4-0.1,0.6-0.3l-0.7,0.1l-0.3,0l-0.2-0.1l-0.1-0.3l0.2,0c0.2,0.1,0.5,0.1,0.6,0
	c0.2-0.2-0.1-0.5-0.2-0.7v-0.3l0.2-0.1l0.3,0.1c0.2,0.2,0.5,0.2,0.6,0s-0.1-0.4-0.3-0.5v-0.2c0.1-0.1,0.4-0.1,0.1-0.4
	c-0.1-0.1-0.2-0.2-0.2-0.3c0.1-0.2,0.1-0.4-0.1-0.5c-0.2-0.1-0.2,0.2-0.4,0.3c-0.1,0.1-0.3,0.2-0.5,0c-0.2-0.2-0.1-0.3,0.1-0.3
	c0.2-0.1,0.2-0.3,0.2-0.5c0-0.2-0.2-0.2-0.4-0.1c-0.1,0-0.1,0.1-0.2,0c-0.4-0.5-0.4-1.1,0-1.6l0.2-0.1c0.2,0.1,0.5,0.1,0.7-0.1
	c0.1-0.1,0-0.2,0-0.2c-0.2-0.2-0.5-0.2-0.7-0.1l0,0c-0.2,0-0.2,0.2-0.3,0.3l-0.2,0l0-0.2c0.3-0.8-0.4-0.5-0.7-0.5
	c0.2-0.3-0.2-0.4-0.3-0.6c0.3-0.1,0.4-0.4,0.3-0.6c0,0,0,0,0,0c0-0.1-0.1-0.2-0.2-0.1c-0.2,0.2-0.5,0.3-0.4,0.7c0,0,0,0.1,0.1,0.1
	c0.1,0.3-0.2,0.2-0.3,0.4c-0.2,0-0.5,0-0.7-0.1C97.2,49.8,97,50,97,50.5c-0.3-0.2-0.6-0.3-1-0.4c-0.4,0-0.5-0.7-0.9-0.5
	c-0.6-0.1-0.7,0-0.7,0.7c-0.4-0.1-0.7-0.1-0.8,0.5c0,0.3-0.3,0.4-0.5,0.5c-0.3,0.1-0.2,0.3-0.2,0.4h-0.3c-0.1,0-0.2,0-0.2,0.2v0.3
	c0.2,0.3,0.4,0.6-0.1,0.7L92,52.9c-0.3-0.2,0-0.3,0.1-0.4c0-0.1,0-0.4-0.2-0.5c-0.2-0.1-0.3,0.1-0.3,0.3s-0.1,0.2-0.3,0.2
	c-0.2,0-0.5,0.1-0.4,0.3C90.9,53.1,91.1,53.1,91.3,53.1z"/>
<path class="st0" d="M101.1,51.9C101.1,51.9,101.1,51.9,101.1,51.9c-0.2,0-0.4,0.2-0.4,0.4c0,0.2,0.1,0.2,0.3,0.2
	c0.2,0,0.3-0.2,0.4-0.4C101.4,52,101.2,51.9,101.1,51.9z"/>
<path class="st0" d="M92.2,51.5L92.2,51.5c0.3,0,0.4-0.1,0.4-0.3c0-0.2-0.3-0.3-0.4-0.3c-0.2,0-0.5,0.1-0.5,0.3
	C91.7,51.4,92,51.4,92.2,51.5z"/>
<path class="st0" d="M98.1,49.6c0.1,0,0.2-0.1,0.3-0.3s-0.1-0.2-0.2-0.2h0c-0.2,0-0.3,0.1-0.3,0.3c0,0,0,0,0,0
	C97.9,49.6,97.9,49.6,98.1,49.6z"/>
<path class="st0" d="M96.4,49.9c0.2,0,0.2-0.1,0.2-0.2c0-0.3-0.2-0.5-0.5-0.6c-0.2,0-0.3,0.1-0.2,0.2C95.9,49.6,96,49.9,96.4,49.9z"
	/>
<path class="st0" d="M107.4,86.7c0-0.1,0-0.2-0.1-0.2c-0.1-0.1-0.1-0.2-0.1-0.2c-0.7,0-0.6-0.3-0.2-0.6c0.2-0.1,0.2-0.3,0.1-0.5
	c0,0-0.1-0.1-0.1-0.1c-0.3-0.2-0.5-0.5-0.5-0.9c0-0.1-0.1-0.3-0.3-0.1c-0.1,0.1-0.4,0-0.5,0.2c-0.3,0.3-0.3,0.1-0.4-0.1
	c-0.2-0.6-0.8-1-1.4-1.1c-0.1,0-0.1,0-0.1,0.1c-0.3,0.2-0.8,0.2-1.1,0c0-0.1,0.1-0.1,0.2-0.2c0.2-0.2,0.1-0.3,0-0.5
	c-0.1-0.2-0.2-0.2-0.3-0.1c-0.1,0.1-0.1,0.3,0,0.4c0.1,0.1,0.1,0.2,0,0.3c-0.2,0.4-0.6,0.2-0.9,0.2c-0.2,0-0.6,0.2-0.6,0.2
	c-0.5-0.5-0.7,0.3-1,0.3c-0.1,0-0.2,0.3-0.1,0.4c0.2,0.1,0.2,0.3,0.1,0.4c-0.1,0.2-0.3-0.1-0.4,0c-0.3,0.1-0.3-0.2-0.4-0.2
	c-0.2-0.1-0.5-0.2-0.6,0.1c-0.1,0.2,0.1,0.3,0.3,0.4c0.2,0.3,0.5-0.1,0.8,0.1c0,0,0,0.1,0,0.1v0.3l-0.4,0c-0.1-0.1-0.3-0.2-0.4,0.1
	l-0.1,0.1c-0.3,0.4,0,0.6,0.4,0.7l-0.1,0.5l-0.1,0.2l-0.4,0c0-0.1-0.1-0.1-0.2-0.1c0,0,0,0-0.1,0c-0.1,0-0.4,0-0.3,0.2
	c0.1,0.2,0.1,0.5,0.4,0.6c0.1,0.1,0.2,0.1,0.3,0.1c0.2,0.1,0.1,0.2,0,0.4c-0.4,0.4-0.4,0.8,0,0.9c0.4,0,0.4,0.3,0.6,0.5
	c0.3,0.3,0,1,0.6,1h0.3c0.3,0,0.4,0.8,0.9,0.3c0.1,0.2-0.2,0.4,0.1,0.5c0.3,0.1,0.4-0.1,0.4-0.4l0-0.2l0.6-0.1l0.3,0
	c0,0,0,0.1,0.1,0c0,0,0,0,0,0c0,0.1,0,0.1,0,0.2c-0.1,0.2-0.2,0.3-0.1,0.5c0.1,0,0.1,0.1,0.2,0c0.2-0.1,0.3-0.3,0.3-0.5
	c0-0.1,0-0.1,0-0.2c0.2-0.2,0.3,0.1,0.5,0.2c0.4,0.1,0.8,0.1,1.2-0.1c-0.2-0.4,0.2-0.8,0-1.1l0.3,0.2c-0.1,0.2-0.1,0.4,0.2,0.5
	c0.3,0,0.6-0.2,0.7-0.4c0.1-0.3-0.3-0.1-0.4-0.2c-0.1,0-0.1-0.1-0.2-0.1c-0.2-0.2-0.3-0.3,0-0.5c0.1,0,0.2-0.1,0.3-0.2
	c0.1-0.6,0.6-1,1.2-1.1c0.2,0,0.2-0.2,0.3-0.4c0.3,0.1,0.5,0.2,0.8,0c0.1-0.1,0.1-0.2,0.1-0.3C107.9,86.6,107.6,86.7,107.4,86.7z"/>
<path class="st0" d="M78.8,107.7c0.6,0.1,1,0.1,1.1-0.6c0-0.2,0.3-0.1,0.3-0.2c0.1-0.1,0.3-0.1,0.3-0.3c0-0.2-0.1-0.2-0.2-0.3h0
	c-0.1-0.1-0.2-0.2-0.1-0.4c0.2-0.3,0-0.4-0.2-0.6c0-0.1,0-0.3,0.2-0.1c0.2,0.2,0.5,0.2,0.7,0.1c-0.1-0.4-0.5-0.7-0.9-0.6
	c0,0-0.1,0-0.1,0c0-0.1-0.1-0.1-0.1-0.1c0.3-0.5,0.3-0.9-0.4-1c-0.1,0-0.1-0.1-0.1-0.2c0-0.1,0.1-0.1,0.2-0.1c0.2,0,0.5-0.2,0.4-0.3
	c-0.4-0.1-0.7-0.3-1-0.6c-0.1-0.1-0.1,0.2-0.2,0.2c-0.2-0.1-0.5,0.1-0.6-0.1s0.2-0.2,0.3-0.3c0.2-0.2,0.2-0.6,0.1-0.8
	c-0.1-0.2-0.2-0.2-0.4,0l-0.2-0.1c0.1-0.2,0.1-0.4-0.2-0.3c-0.4,0.2-0.7-0.2-1.1-0.1c-0.1-0.3-0.3-0.6-0.5-0.1
	c0,0.1-0.1,0.2-0.2,0.1c-0.4-0.3-0.6,0-0.9,0.2c0-0.4-0.1-0.8-0.5-0.7c-0.3,0.1-0.1,0.3,0,0.5c0,0.1,0,0.3-0.1,0.4
	c-0.1,0-0.2,0.1-0.2,0.2l-0.2,0.1l-0.2,0c-0.2-0.2,0.1-0.4,0-0.6c-0.2-0.2-0.3-0.3-0.5-0.3s-0.1,0.3,0,0.4s0,0.3-0.1,0.4
	c-0.2,0.3-0.1,0.6,0.2,0.8c0.2,0.1,0.2,0.3,0.1,0.5c0,0.1-0.1,0.1-0.2,0.2c-0.8,0-0.4,0.6-0.4,1l-0.3,0.1c-0.1,0-0.2,0-0.2,0.1
	c-0.1,0-0.2-0.1-0.2-0.2s-0.1-0.4-0.3-0.2c-0.1,0.1-0.2,0.3-0.2,0.4c0,0.3,0.2,0.3,0.4,0.4c0,0.2,0.3,0.7-0.3,0.5
	c-0.2-0.1-0.3,0.1-0.3,0.3c0,0.6,0.4,0.4,0.7,0.4c0.1,0.1,0.2,0.2,0.1,0.3c-0.1,0.1-0.2,0.2-0.2,0.4c-0.3-0.1-0.6-0.1-0.6,0.2
	c0,0.3,0.3,0.2,0.5,0.3c0,0,0.1,0,0.1,0L73,107l0.1,0.1c-0.1,0.1-0.3,0.2-0.4,0.4c-0.1,0.1-0.2,0.3,0,0.3c0.1,0.2-0.1,0.3-0.1,0.4
	c0,0.2,0,0.2,0.1,0.3c0.1,0,0.2,0,0.3,0c0.3-0.3,0.5-0.2,0.8,0c0.1,0,0.2-0.1,0.2-0.2c0.3-0.3,0.3,0.3,0.5,0.2
	c0.2,0.2,0.5,0.2,0.7,0.2c0,0.2-0.2,0.1-0.3,0.1c-0.2,0-0.4,0.2-0.5,0.4c0,0.2,0.2,0.2,0.3,0.2c0.3,0,0.6-0.1,0.5-0.5
	c0-0.1-0.1-0.2,0-0.3c0.3,0.2,0.5,0.8,1.1,0.3l0.5,0.1c0,0.1,0,0.2,0.1,0.2c0.1,0.2,0.2,0.3,0.5,0.1c0.1,0,0.2,0.3,0.4,0.1
	c0.1-0.1,0.1-0.3,0-0.4c0,0,0,0,0,0l0.1-0.2c0.3,0,0.5,0,0.5-0.4h0.2c0.5,0,0.6-0.2,0.3-0.8L78.8,107.7z"/>
<path class="st0" d="M115.5,70.7c-0.3-0.1-0.4,0.3-0.6,0.3l-0.1-0.2l0.1-0.1c0.1,0,0.3,0,0.3-0.2c0-0.2-0.2-0.2-0.4-0.2
	c0.1-0.2,0.1-0.4-0.2-0.5c0-0.1-0.2-0.3,0.1-0.4c0.4-0.2,0.3-0.4,0-0.6c0,0,0-0.1,0-0.1c0.2-0.2,0.3-0.5,0.1-0.6
	c-0.2-0.2-0.3,0.2-0.5,0.3c0,0-0.1,0-0.1,0c-0.1-0.2-0.2-0.1-0.4-0.2c0-0.5-0.3-0.5-0.6-0.3l-0.4,0c0.3-0.5-0.2-0.6-0.4-0.8
	c-0.2-0.2-0.3,0-0.4,0.2c-0.2-0.2-0.4-0.2-0.5,0.1h-0.1c0-0.2,0-0.4,0-0.6s0.1-0.3-0.1-0.3c-0.2,0-0.3,0.1-0.3,0.3s-0.1,0.3-0.2,0.5
	h-0.2c-0.1-0.6-0.1-0.6-0.5-0.5c-0.2-0.1-0.1-0.4-0.3-0.6c-0.2-0.1-0.2-0.3-0.4,0l-0.8,0c-0.3-0.3-0.4,0.2-0.7,0.2
	c0-0.6-0.3-0.5-0.7-0.4l-0.3,0c-0.2-0.1-0.3-0.4-0.6-0.2c-0.3,0.2,0,0.3,0,0.5c-0.2-0.1-0.4,0-0.6-0.1c-0.2-0.1-0.2-0.2-0.1-0.4
	c0.1-0.2,0-0.3-0.2-0.4c-0.1,0-0.2-0.1-0.3,0c-0.2,0.1,0,0.3,0,0.5l-0.1,0.1l-0.2-0.1c-0.2,0-0.3,0.2-0.4,0.1l-1.2,0.5
	c-0.5,0-0.8-0.1-0.4-0.7c0.1-0.2,0.1-0.3-0.2-0.4c-0.1-0.2-0.2-0.3-0.4-0.3c-0.1,0-0.1,0-0.1,0.1c0,0,0,0,0,0
	c0.1,0.5-0.3,0.4-0.6,0.5h-0.2c0-0.2,0.1-0.5-0.2-0.6c-0.1-0.1-0.3,0.1-0.3,0.2l-0.1,0v0h0c0-0.2,0-0.5-0.3-0.5
	c-0.3,0-0.2,0.2-0.2,0.4c-0.5,0.4-0.7,0.3-1-0.2c-0.1-0.3-0.2-0.3-0.5-0.3c-0.3,0-0.6,0.4-1.1,0.2C97.6,64.6,97.2,65,97,65
	c-0.4-0.1-0.9,0.1-1.4-0.2c0.2-0.2,0.4-0.3,0.2-0.6s-0.4,0.1-0.5,0.1c-0.2,0-0.2,0.3-0.4,0.1c-0.4-0.5-0.8-0.4-1.3-0.2
	c-0.3,0.1-0.5,0-0.7-0.1c-0.1-0.1-0.2-0.4-0.4-0.3c-0.2,0.1,0,0.4-0.1,0.5c-0.2,0-0.3-0.2-0.4-0.3c0-0.1-0.2-0.2-0.3-0.2
	c-0.5,0.1-1.1,0-1.6-0.2c-0.2,0-0.4,0.2-0.7,0.1l-0.1,0c-0.3-0.1-0.6-0.1-0.9,0c-0.1,0-0.2,0-0.2-0.1l-0.9-0.3c0-0.3,0-1.2-0.2-1.3
	c0.2,0,0.4-0.1,0.4-0.3c0,0,0-0.1,0-0.1c0-0.2-0.2-0.3-0.4-0.3c-0.3-0.1-0.5-0.3-0.5-0.6c0.4-0.3,0.1-0.5-0.1-0.8
	c0.1-0.1,0.1-0.2,0-0.3l0.1-0.2c0.1,0,0.2,0,0.2-0.1c0-0.1,0-0.2-0.1-0.2c0,0,0,0,0,0c-0.2-0.1-0.6,0-0.4-0.4c0.1-0.1,0.1-0.2,0-0.2
	c0-0.2,0.1-0.3,0.1-0.4c0.2-0.3,0.3-0.5-0.2-0.4c-0.2,0-0.3-0.2-0.2-0.4c0-0.1,0.2-0.1,0.1-0.3c-0.1-0.1-0.2-0.1-0.3-0.1
	s-0.3,0.1-0.4,0c-0.1-0.2,0.1-0.2,0.2-0.3c0.2-0.1,0.4-0.3,0-0.5l0-0.2c0.2-0.2,0.4-0.3,0.1-0.6c0,0,0-0.1,0-0.1
	c0-0.2,0.5-0.3,0.1-0.5c-0.2-0.1-0.4,0-0.5,0.3c0,0.3-0.2,0.1-0.3,0.1c0-0.2-0.2-0.4-0.1-0.7c0.1-0.2-0.1-0.2-0.2-0.2l-0.1-0.2
	c0.5-0.6,0.4-1-0.2-1.3c-0.2-0.1-0.2-0.2-0.2-0.4c0-0.2,0.1-0.7,0.1-0.7c-0.4-0.3-0.2-0.5,0-0.7c0.2-0.2,0.4-0.4,0.2-0.7l0-0.2
	c0.1-0.2-0.1-0.2-0.2-0.2c-0.1,0-0.3,0.1-0.4,0v-0.2c0-0.1,0-0.2-0.2-0.2l-0.1-0.2l0.1-0.1c0-0.2,0.5-0.6,0.1-0.7
	c-0.4-0.1-0.4-0.3-0.4-0.6c0-0.2,0.1-0.4-0.2-0.4V47c0.1-0.1,0-0.2-0.1-0.2s-0.2,0-0.3-0.1c0.1-0.1,0-0.2-0.1-0.3l0,0l0-0.2
	c0.3,0,0.5-0.1,0.3-0.4c0-0.2,0-0.3-0.2-0.3c-0.1-0.2-0.2-0.5-0.2-0.8c0.1-0.1,0.1-0.2,0.1-0.3c0.1-0.4,0-0.5-0.4-0.3
	c0,0-0.1,0-0.2,0c-0.1-0.6-0.1-1.3-0.5-1.9c0.2-0.1,0.3-0.1,0.2-0.4c0-0.3-0.2-0.3-0.4-0.4s-0.4,0.3-0.6,0.1c0,0,0-0.1-0.1-0.1
	c0-0.1-0.1-0.1-0.1-0.2c0.5-0.1,0-0.4,0.1-0.6c0.1,0,0.1-0.1,0-0.2c0,0,0,0,0,0c0-0.3-0.2-0.3-0.4-0.1c0-0.3,0.1-0.7,0.2-1
	c0.1-0.1,0.1-0.3-0.1-0.4c-0.2-0.1-0.3,0.1-0.4,0.2c-0.1,0.1,0,0.5-0.2,0.6c-0.2-0.3-0.5-0.1-0.7-0.1v-0.1c0.1,0,0.2,0,0.2-0.2
	c-0.1-0.4-0.5-0.4-0.9,0h-0.1c-0.4-0.3-0.5,0-0.7,0.3c-0.2-0.3-0.4-0.4-0.7-0.1c-0.8,0.1-0.8,1-1.3,1.4l0,0.2l-0.2,0l-0.2,0L75,41.2
	c-0.2,0-0.2,0.1-0.1,0.3c0.1,0.2,0,0.3-0.1,0.5c-0.1,0.1-0.3,0.1-0.1,0.3c0.2,0.2-0.1,0.1-0.1,0.2c-0.2,0-0.1,0.1-0.1,0.2
	c-0.2,0-0.3,0.1-0.2,0.3c0,0.2,0.2,0.3,0.3,0.4c0,0.3-0.3,0.1-0.4,0.2s-0.2,0.1-0.2,0.2s0,0.1,0.1,0.2c0.1,0,0.4-0.1,0.2,0.2
	c-0.1,0.2,0,0.5-0.4,0.5c-0.8,0.1-0.8,0.2-0.3,0.8c0.1,0.1,0.1,0.2,0.1,0.2l0,0v0h-0.2l-0.2,0.2c-0.2,0-0.4-0.2-0.4,0.2l0,0.2
	c-0.4,0.1,0.1,0.5-0.1,0.5c-0.6,0.2-0.4,0.8-0.6,1.2c-0.3,0.4-0.3,0.5,0.2,0.9c-0.7-0.1-0.7,0.3-0.8,0.6c-0.2,0.3-0.3,0.6-0.3,1
	c0,0,0,0,0,0c0.5,0.5-0.1,0.6-0.3,0.6c-0.2,0-0.3,0.1-0.4,0.3c-0.1,0.3,0.2,0.8-0.4,0.9c0,0,0,0.1,0,0.1c0.2,0.4-0.1,0.3-0.3,0.3
	c-0.2,0-0.6,0.1-0.5,0.2c0.2,0.3,0,0.6,0.3,0.8c0.3,0.2,0.2,0.3-0.1,0.3c-0.3,0-0.5,0-0.5,0.3c0,0.3,0.4,0.1,0.4,0.4
	c-0.2,0.2-0.5,0.3-0.8,0.3c-0.5,0.1-0.1,0.6-0.3,0.8c-0.1,0-0.3-0.1-0.4-0.1c-0.1,0-0.2,0-0.3,0.1c-0.1,0.1,0,0.2,0.1,0.3
	c0.3,0.4,0.3,0.7-0.2,0.8c-0.1,0-0.2,0-0.2,0.2c0,0.1,0.1,0.2,0.2,0.2c0.1,0.1,0.3,0.1,0.4,0.2c-0.3,0.1-0.4,0.4-0.3,0.7
	c0,0,0,0,0,0c0,0.1,0.1,0.2,0,0.3c-0.3,0.3-0.3,0.7-0.8,0.8c-0.1,0-0.2,0.1-0.2,0.2c0,0,0,0.1,0.1,0.1c-0.1,0.3-0.2,0.3-0.3,0.1
	c-0.2-0.3-0.5-0.2-0.7,0c-0.2,0.2-0.1,0.5,0.2,0.5l-0.1,0.6c-0.2-0.1-0.4,0.1-0.5,0.2c-0.4,0-0.5,0.2-0.5,0.6c0,0.1,0.2,0.3-0.1,0.3
	c-0.3-0.1-0.3,0.2-0.5,0.3c0,0,0-0.1-0.1-0.1c-0.1-0.2-0.2-0.2-0.3-0.1c-0.2,0.2-0.4,0.1-0.7,0c-0.3-0.1-0.3,0.4-0.4,0.3
	c-0.3-0.4-0.6,0-0.9,0c0-0.1,0-0.3,0.1-0.4c0.1-0.2,0-0.4-0.2-0.5c-0.1-0.1-0.2-0.2-0.3-0.1c-0.1,0.1-0.2,0.4,0,0.5
	c0,0.1,0,0.2,0.1,0.3c-0.2,0-0.4,0.1-0.5,0.1c-0.6-0.2-1,0-1.5,0.3c-0.2,0.1-0.5,0.6-0.8,0c-0.1-0.2-0.4-0.2-0.4-0.1
	c-0.3,0.8-0.8,0.3-1.1,0.1c-0.3-0.2-0.6-0.2-0.8,0.2c-0.4,0.1-0.6-0.4-0.9-0.3c0-0.1,0.3-0.3,0-0.4c-0.2-0.1-0.3,0.1-0.4,0.2
	c-0.1,0.1-0.1,0.4-0.1,0.7l-0.1,0c-0.1-0.1-0.3-0.4-0.4-0.3c-0.4,0.4-1.1,0.2-1.4,0.7c0-0.6-0.3-0.6-0.7-0.4L52,63.4
	c0,0,0-0.1-0.1-0.1c-0.5-0.3-0.4,0.3-0.7,0.4c-0.1-0.2-0.3-0.4-0.4-0.3c-0.5,0.6-0.4-0.1-0.6-0.2c-0.1-0.2-0.3-0.3-0.4-0.1
	c-0.1,0.6-0.6,0.5-1,0.6c-0.1,0-0.2,0.1-0.3,0.2c-0.1,0-0.2,0-0.3,0l-0.2-0.1c-0.3-0.1-0.6-0.3-0.9,0c-0.2,0.1-0.3,0.3,0,0.4l0.1,0
	c0.2,0.1,0.4-0.1,0.5,0.1c0.1,0.2-0.3,0.3-0.3,0.5c0,0,0,0.1-0.1,0.1c-0.2,0-0.4,0-0.6,0.1c0.2-0.7-0.4-0.3-0.6-0.5
	c-0.2-0.1-0.5-0.1-0.7,0.1c-0.1,0.1,0,0.3,0.1,0.3s0.3,0.2,0.4,0.4L46,65.5c-0.1,0-0.2,0.1-0.4,0s-0.1-0.1-0.3-0.1
	c-0.2,0.2-0.2,0.5-0.1,0.7c0,0,0,0,0.1,0.1c0.2,0.4-0.2,0.1-0.3,0.2c-0.1-0.1-0.3-0.2-0.4-0.1c-0.1,0.1,0.1,0.2,0.2,0.4
	s0.1,0.1,0.1,0.2c0,0.5-0.3,0.9-0.7,1.3l-0.1,0.2h-0.1l0.1,0.1l0.1,0.3c-0.2,0.2-0.4,0.6-0.1,0.8c0.3,0.2,0.4-0.2,0.5-0.4
	c0,0,0.1-0.1,0.1-0.1c0.3,0.2,0.5,0.7,1,0.5c0.1,0,0.3-0.3,0.4-0.1c0.1,0.2,0.1,0.4,0,0.6c-0.1,0-0.1,0-0.2,0
	c-0.2-0.1-0.4-0.4-0.6-0.1c-0.2,0.4,0.2,0.4,0.4,0.5c0.1,0,0.1,0,0.2,0c0.5-0.1,0.9-0.2,1,0.5c0.1,0.4,0.2,0.7,0.5,1
	c0.1,0.1,0.4-0.1,0.3,0.2c-0.1,0.3,0,0.6,0.3,0.7c0.4,0.2,0.4-0.3,0.6-0.3c0.1,0.5,0.6,0.9,1.1,1c0.2,0,0.3,0.1,0.4,0.2
	c-0.4,0.2,0,0.6-0.2,0.8s-0.1,0.5,0.3,0.4c0.3-0.1,0.2,0.1,0.3,0.3c0.2,0.3,0.2,0.8,0.7,0.8c0.3,0,0.1-0.4,0.4-0.4l0.2-0.1l0.3,0
	l0.2,0.2c-0.1,0.2-0.3,0-0.4,0.1c-0.2,0.1-0.3,0.3-0.2,0.4c0,0,0,0,0,0c0,0.1,0,0.3,0.2,0.3c0.2,0,0.3-0.1,0.4-0.3
	c0.1-0.4,0.4-0.3,0.7-0.3l0.3,0.4c-0.2,0.2-0.9-0.1-0.5,0.5c0.2,0.2,0.2,0.5,0.1,0.7c0,0.2,0,0.3,0.1,0.4c0.1,0.1,0.2,0,0.3,0
	c0.3-0.2,0.7-0.3,1-0.2l0.1,0.1c0,0.1,0,0.3,0.2,0.3c0.8,0.1,1.1,0.4,1.1,1.1c0,0.1,0,0.3,0.1,0.4c0.1,0.1,0.2,0.2,0.3,0
	c0.1-0.2,0.1-0.4,0.3-0.3c0.2,0.1,0.2,0.3,0.2,0.5c0,0.4,0,0.8,0.6,0.8c-0.1,0.1-0.2,0.2-0.3,0.2s-0.3-0.3-0.4,0
	c0,0.2-0.2,0.5,0.1,0.6c0.3,0.1,0.2,0.2,0.1,0.4c-0.1,0.2-0.3,0.3,0,0.4c0.2,0.1,0,0.2,0,0.2c-0.4,0.1-0.5,0.4-0.4,0.7
	c0.1,0.7-0.6,1.2-0.2,1.9c0,0.1-0.1,0.1-0.1,0.1c-0.2,0.3,0,0.8-0.5,1c0,0.1,0.1,0.1,0.1,0.2c0.1,0.1,0.1,0.2,0.1,0.4
	c0,0.3,0.5,0.6-0.1,0.8c0,0.1,0.1,0.1,0.1,0.2c0.1,0.2,0.2,0.4,0.2,0.6c-0.2,0.1-0.1,0.3-0.1,0.5c-0.2,0.3,0,0.5,0,0.8
	c-0.3,0-0.5-0.3-0.8,0c-0.2,0.1-0.3,0.2,0,0.3l0.1,0.3c0,0.1,0.1,0.1,0.2,0.2c-0.1,0.2-0.6,0-0.4,0.5c-0.1,0.1-0.3,0.2-0.4,0.3
	c-0.1,0.1-0.2,0.3-0.1,0.5c0.1,0.2,0.3,0.1,0.5,0c0.1,0,0.1-0.1,0.2-0.1c0.2,0.2-0.1,0.4,0.1,0.5v0.2l-0.4,0.3v0l0,0
	c-0.3,0.3-0.3,0.3,0.2,0.6c0,0.2,0.2,0.3,0.2,0.5c-0.5,0.1-0.2,0.4-0.3,0.7l-0.3,0l-0.2-0.1c-0.1-0.2-0.2-0.3-0.4-0.3
	c-0.3,0-0.6,0-0.7,0.4c-0.1,0.3,0.1,0.4,0.4,0.4l0.2,0.2c0.2,0.5,0.6,0.5,1,0.5c-0.2,0.3-0.1,0.7-0.6,0.5c-0.1,0-0.3,0-0.4,0.1
	c-0.1,0.2,0,0.3,0.2,0.4c0.1,0.1,0.1,0.2,0,0.3c-0.1,0.2-0.1,0.4-0.1,0.6c0.1,0.2-0.2,0.5,0,0.7c-0.1,0.2-0.4,0.1-0.3,0.4
	c0.3,0.5-0.3,0.6-0.3,0.9c0,0.2,0.1,0.2,0.2,0.2c0,0.3-0.1,0.2-0.3,0.2s-0.4,0.1-0.5,0.3c-0.1,0.2,0.1,0.2,0.3,0.3
	c0.3,0.2,0.5,0.3,0.6-0.1c0.1-0.1,0.2-0.1,0.4-0.1c0,0.1,0.2,0.3-0.1,0.4c-0.1,0-0.2,0.2-0.2,0.3c0,0,0,0,0,0l-0.1,0.2
	c-0.2,0-0.5,0-0.5,0.3c0,0.3,0.3,0.2,0.5,0.2l0.1,0.2c0,0.2,0.1,0.4,0.2,0.3c0.6-0.2,0.2,0.2,0.3,0.4c0,0-0.1,0-0.1,0.1
	c-0.1,0.2-0.4,0.3-0.6,0.2c-0.2,0-0.3,0.1-0.4,0.3c0,0.2,0.2,0.3,0.3,0.3c0.2,0,0.4,0.1,0.7,0.1l-0.1,0.1c-0.1,0-0.3,0-0.3,0.2
	c0,0.2,0.1,0.2,0.3,0.2c0.1,0.2,0.3,0,0.4,0.1c0.1,0,0.2-0.2,0.2-0.3c0.3,0.1,0.6,0.2,0.8,0.2c0.1,0,0.2,0,0.1,0.2
	c-0.2,0.2-0.5,0.3-0.7,0.4c-0.1,0-0.3,0.1-0.2,0.2c0,0.1,0.1,0.2,0.2,0.2c0.4,0.2,0.5-0.2,0.8-0.3c0.1,0,0.3,0.1,0.3,0.3
	c0,0.5,0.4,0.6,0.8,0.5c0.2,0.1,0.1,0.3,0.2,0.4c0.1,0.1,0.3,0.2,0.3,0.1c0-0.5,0.5-0.3,0.6-0.6c0.1-0.1,0.1-0.2,0-0.4H58
	c0.3,0.3,1,0.4,1.1,0.1c0.2-0.4,0.6-0.7,1.1-0.6c0.2,0,0.5,0.1,0.6-0.3c0-0.1,0.1-0.1,0.1-0.1c0,0,0,0,0,0c0.8,0.1,0.8-0.5,1-1
	c0-0.1,0-0.2,0.1-0.2c0.7,0.3,0.7-0.4,1-0.7c0.1-0.1,0.1-0.2,0.3-0.1s0.4,0.1,0.5-0.2c-0.1-0.5,0.3-0.9,0.7-1c0.1,0,0.2,0,0.3,0
	c0.3,0,0.3,0,0.3-0.2c0.1-0.2,0.3-0.7,0.8-0.7c0.3,0,0.7,0.4,0.6-0.3c0,0,0.1,0,0.1,0c0.4,0,0.4,0,0.4-0.5l0.1-0.1
	c0.7,0.4,1.1,0.3,1.2-0.4c0-0.3,0.3-0.6,0.2-1c0.3,0,0.3,0.5,0.6,0.3c0.3-0.1-0.1-0.4,0-0.7c0.6,0.1,0.6,0.1,0.8-0.4l0.2,0
	c0.2,0.3,0.3,0.5,0.4,0c0-0.1,0-0.2,0.1-0.3c0.4-0.3,0.6-1.1,1.4-0.7c0.2,0.1,0.5,0.2,0.7-0.1c0.2-0.2-0.2-0.2-0.2-0.4
	c0-0.1,0-0.1,0-0.2l0.4-0.1l0.1,0c0,0.2,0.1,0.5,0.4,0.5c0,0,0,0,0.1,0c0.1,0,0.2,0,0.2-0.1c0.1-0.2-0.1-0.3-0.2-0.4
	c0,0,0-0.1,0-0.1l0.2-0.1h0.3c0.1,0.1,0.2,0.3,0.3,0c0.1-0.2,0.1-0.5-0.1-0.6c0.2,0.1,0.2,0,0.3-0.1s0.2-0.2,0.3-0.1
	c0,0.2,0.1,0.4,0.3,0.5c0.1,0.2,0.4,0.1,0.5,0.3c0.3,0.7,0.4,0.1,0.5-0.1l0.3,0l0.1,0c-0.1,0.1-0.1,0.3,0,0.5c0.1,0.3,0.2,0.2,0.4,0
	H77c0.3,0.4,0.3-0.2,0.6-0.2c0,0.1,0,0.2,0,0.3c0,0.2,0,0.4,0.2,0.4c0.2,0,0.2-0.2,0.3-0.3c0,0,0.1-0.1,0.1-0.1
	c0.4,0.2,0.8,0.4,1.2,0.7c0.6,0.5,0.9,1.4,1.9,1c0.1,0,0.2,0,0.3,0c0.1,0.2-0.1,0.4,0.1,0.6l-0.1,0.3c0.1,0.4,0.3,0,0.5,0.1l0.1,0.3
	c-0.1,0-0.1,0-0.2,0c-0.3,0-0.4,0.1-0.4,0.4c0,0.1,0,0.3,0.1,0.3c0.2,0,0.3-0.2,0.4-0.4c0-0.1,0.1-0.2,0.2-0.2h0.1
	c0.1,0,0.2,0,0.3,0.1v0.2c0,0.3,0.2,0.5,0.5,0.6c0.2,0,0.6,0,0.5,0.5c0,0.2,0.3,0.3,0.5,0.2c0.1,0,0.1-0.2,0.3-0.2
	c0.1,0.1,0.1,0.3,0,0.4c-0.1,0.1-0.2,0.3,0,0.4c0.2,0.1,0.4,0,0.5-0.1c0.1-0.1,0.2-0.3,0.4-0.4c0.2,0.4,0.1,1,0.8,0.9
	c0,0,0.1,0.1,0.1,0.2c0,0.2,0.2,0.4,0.5,0.4c0.1,0,0.5,0.1,0.4,0.5c0,0.1-0.1,0.2,0,0.3c0.1,0.1,0.2,0,0.3-0.1
	c0.2-0.3,0.5-0.2,0.7,0c-0.2,0.2-0.4,0.4-0.5,0.6c-0.1,0.1-0.1,0.3-0.1,0.4c0.1,0.1,0.2,0,0.4,0c0.4-0.1,0.9-0.1,1.3,0.1
	c0.3,0.6,0.4-0.3,0.6-0.1c-0.1,0.4,0.4,1.2,0.6,1c0.3-0.2,0.4,0.1,0.4,0.1c0.1,0.4,0.3,0.3,0.6,0.2c0.1,0,0.3-0.1,0.4,0
	c0.2,0.4,0.2,0.4,0.6,0.4c0.2-0.1,0.4,0.1,0.6,0.1l0.3,0.4c0.1,0.1,0.3,0.2,0.3,0.4c-0.1,0.4,0.2,0.5,0.5,0.5l0.1,0.2
	c-0.1,0.3,0,0.4,0.3,0.4c0.2,0,0.3-0.1,0.2-0.4l0.2,0c0.2,0.2,0.4,0.1,0.6,0.1c0.2,0,0.3-0.2,0.1-0.3c-0.3-0.2,0-0.5-0.1-0.7
	l0.1-0.3c0.4-0.1,0.2-0.4,0.2-0.6c0.3-0.2,0.3,0.3,0.5,0.3v-0.5c0.2,0,0.3,0,0.5,0s0.3,0,0.4-0.1c0.1-0.1-0.1-0.3-0.2-0.4
	c0.2-0.5-0.3-0.7-0.6-1c-0.1-0.1-0.1-0.3,0-0.4c0,0,0,0,0.1-0.1c0.2-0.1,0.3,0,0.4,0.1v0c0.3-0.1,0.5-0.2,0.2-0.6
	c-0.1-0.1-0.2-0.3-0.1-0.5c0.5-0.5-0.2-0.8-0.3-1.3c0-0.1-0.1-0.3-0.1-0.5c0.2-0.1,0.1-0.3,0.1-0.5c0.1-0.1,0.1-0.3,0.1-0.5
	c0.2,0,0.5-0.1,0.4-0.3c0-0.3-0.3-0.1-0.4-0.2c-0.1,0-0.1,0-0.2-0.1c0-0.1,0-0.2,0-0.2l0.1-0.2c0.1,0,0.2,0,0.3-0.2
	c0.1-0.1,0.1-0.2,0-0.3c0,0,0,0,0,0c-0.1-0.1-0.2,0-0.3,0.1c-0.3,0.2-0.3-0.1-0.5-0.2c-0.1-0.3,0.2-0.7-0.3-0.8
	c0.1,0,0.1-0.1,0.1-0.2c0.1-0.1,0.4,0,0.5-0.2c0.1-0.1,0.3-0.2,0-0.3c-0.3-0.1-0.4,0-0.7-0.1c0-0.2,0.4-0.4-0.1-0.5l-0.2-0.2l0-0.2
	c0.1,0,0.3,0,0.3-0.2c0.2-0.1,0.3-0.3,0-0.4l-0.1,0l-0.2-0.2c-0.3-0.2-0.6-0.6-0.5-0.9c0-0.3,0.4-0.5,0.8-0.5c0,0,0,0,0.1-0.1
	c0-0.3-0.3-0.4-0.4-0.4c-0.6-0.2-0.2-0.6-0.1-0.8c0.2-0.4,0.2-0.8-0.2-1.1c-0.6-0.4-0.6-0.5-0.2-1c0.1-0.1,0.2-0.2,0-0.3
	s-0.2-0.1-0.3,0c-0.2,0.3-0.3,0.1-0.5,0.1c0.1-0.2,0.3-0.2,0.3-0.3c0.2-0.2,0.7-0.5,0.4-0.7c-0.4-0.3-0.1-0.5-0.1-0.8
	s0.4-0.2,0.4-0.5c0.2-0.1,0.1-0.2,0-0.3c0,0,0,0,0,0c-0.1-0.1-0.2-0.1-0.3,0l-0.3,0.1c0.1-0.2-0.1-0.5-0.3-0.6
	c0.1-0.2,0-0.3-0.1-0.4l0.2-0.1c0.2,0.1,0.5-0.1,0.6-0.3c0,0,0-0.2-0.1-0.2c-0.2-0.1-0.5-0.1-0.6,0.1c0,0,0,0,0,0c0,0,0,0,0,0.1
	L94,85.7c0-0.1,0-0.2-0.1-0.3c0-0.1,0-0.2,0.1-0.2c0.7-0.4,0.7-0.4,0.2-1c-0.1-0.1-0.2-0.5,0-0.6c0.3-0.2,0.2-0.4,0-0.5
	c-0.3-0.2-0.5-0.5-0.4-0.9c0-0.1-0.1-0.2-0.2-0.2c-0.3-0.2-0.2-0.4,0.1-0.7c0,0.2,0.1,0.4,0.3,0.5c0.3,0,0.1-0.3,0.2-0.4
	c0.1-0.3,0.4-0.2,0.6-0.2c0.1,0,0.3,0.1,0.3-0.1c0-0.5,0.2-0.4,0.5-0.2c0.1,0.1,0.2,0.1,0.3,0.1c0.1-0.1,0.1-0.2,0-0.3
	s-0.1-0.4,0.1-0.3c0.6,0.2,0.5-0.1,0.6-0.5s0.6,0.4,0.8-0.1c0.1-0.1,0.2-0.2,0.4-0.1c0.3,0.1,0.5-0.1,0.6-0.4
	c0.2-0.1,0.6,0.1,0.6-0.2c0-0.3-0.4-0.2-0.6-0.3c0,0,0-0.1-0.1-0.1c0.4-0.2,0.7-0.3,1,0.2c0.1,0.2,0.5,0.1,0.7,0.1s0.2-0.3,0-0.5
	c-0.1-0.1-0.1-0.1,0-0.2c0.1-0.1,0.1,0,0.2,0c0.1,0.1,0.4,0.2,0.5,0c0.1-0.2-0.1-0.3-0.1-0.5c0.2-0.1,0.4,0.1,0.6-0.2
	c0.2-0.2,0.4-0.3,0.7-0.2c0.7,0.2,1.4,0,1.9-0.5c0.2-0.2,0.2,0.1,0.3,0.1c0,0.1,0.2,0.2,0.3,0.1c0.2,0,0.4,0,0.4-0.3
	c0.1,0,0.1-0.1,0.2-0.1c0.1,0,0.4,0.2,0.4-0.1c0-0.2-0.1-0.3-0.2-0.4c-0.1,0-0.1-0.1-0.1-0.2c0.2,0,0.4-0.3,0.5,0.1
	c0.1,0.4,0.3,0.2,0.4,0c0.2-0.3,0.4-0.5,0.7-0.2c0.2,0.1,0.3,0.2,0.5-0.1c0.1-0.3,0.4-0.2,0.4-0.6c0-0.4,0.6-0.4,0.9-0.1
	c0.2,0.2,0.4,0.3,0.4-0.1s0.5-0.4,0.7-0.6c0.2-0.2,0.3,0.2,0.4,0.3c0.1,0.1,0.3,0.3,0.5,0.2c0.2-0.1,0.1-0.3,0-0.5s-0.3-0.3,0.1-0.4
	c0.3-0.1,0.6-0.3,0.6-0.6c0-0.1,0.1-0.2,0.3-0.2c0,0,0.1,0,0.1,0c0.2,0.2-0.4,0.3-0.1,0.5c0.2,0.2,0.5,0.2,0.7,0
	c0.1-0.1,0.2-0.1,0.2-0.2c0.1-0.4,0.5-0.5,0.8-0.7c0.1,0,0.4,0.1,0.3-0.2c0.1,0.1,0.3,0.2,0.5,0.2c0.1,0.1,0.3,0.1,0.5,0
	c0-0.1,0-0.3,0.1-0.3c0.5-0.1,0.3-0.9,0.9-0.9c0.1,0,0.1-0.3-0.1-0.4c-0.2-0.1-0.2-0.1-0.1-0.3c0.2,0,0.3,0.1,0.5,0.1
	c0.2,0,0.3-0.1,0.4-0.3c0,0,0,0,0,0C115.8,70.6,115.6,70.7,115.5,70.7z"/>
</svg>
